<?xml version="1.0" encoding="UTF-8" standalone="no"?>
<!-- Created with Inkscape (http://www.inkscape.org/) -->

<svg
   width="70mm"
   height="120mm"
   viewBox="0 0 70 120"
   version="1.1"
   id="svg1"
   sodipodi:docname="cardback.svg"
   inkscape:version="1.4 (1:1.4+202410161351+e7c3feb100)"
   inkscape:export-filename="cardback_bw.png"
   inkscape:export-xdpi="300"
   inkscape:export-ydpi="300"
   xmlns:inkscape="http://www.inkscape.org/namespaces/inkscape"
   xmlns:sodipodi="http://sodipodi.sourceforge.net/DTD/sodipodi-0.dtd"
   xmlns:xlink="http://www.w3.org/1999/xlink"
   xmlns="http://www.w3.org/2000/svg"
   xmlns:svg="http://www.w3.org/2000/svg">
  <sodipodi:namedview
     id="namedview1"
     pagecolor="#ffffff"
     bordercolor="#000000"
     borderopacity="0.25"
     inkscape:showpageshadow="2"
     inkscape:pageopacity="0.0"
     inkscape:pagecheckerboard="0"
     inkscape:deskcolor="#d1d1d1"
     inkscape:document-units="mm"
     inkscape:zoom="0.8359375"
     inkscape:cx="96.299065"
     inkscape:cy="178.84112"
     inkscape:window-width="1478"
     inkscape:window-height="891"
     inkscape:window-x="0"
     inkscape:window-y="0"
     inkscape:window-maximized="1"
     inkscape:current-layer="layer1"
     inkscape:export-bgcolor="#ffffff00" />
  <defs
     id="defs1">
    <linearGradient
       id="swatch13">
      <stop
         style="stop-color:#000000;stop-opacity:1;"
         offset="0"
         id="stop13" />
    </linearGradient>
    <linearGradient
       id="swatch12">
      <stop
         style="stop-color:#000000;stop-opacity:1;"
         offset="0"
         id="stop12" />
    </linearGradient>
    <linearGradient
       id="swatch23">
      <stop
         style="stop-color:#000080;stop-opacity:1;"
         offset="0"
         id="stop23" />
    </linearGradient>
    <linearGradient
       id="swatch20">
      <stop
         style="stop-color:#000000;stop-opacity:1;"
         offset="0"
         id="stop20" />
    </linearGradient>
    <linearGradient
       id="swatch19">
      <stop
         style="stop-color:#000000;stop-opacity:1;"
         offset="0"
         id="stop19" />
    </linearGradient>
    <linearGradient
       id="swatch7">
      <stop
         style="stop-color:#000000;stop-opacity:1;"
         offset="0"
         id="stop7" />
    </linearGradient>
    <linearGradient
       id="swatch6">
      <stop
         style="stop-color:#000000;stop-opacity:1;"
         offset="0"
         id="stop6" />
    </linearGradient>
    <linearGradient
       id="swatch5">
      <stop
         style="stop-color:#000000;stop-opacity:1.0"
         offset="0"
         id="stop5" />
    </linearGradient>
    <linearGradient
       xlink:href="#swatch5"
       id="linearGradient5"
       x1="-10.914311"
       y1="16.671715"
       x2="46.260887"
       y2="16.671715"
       gradientUnits="userSpaceOnUse" />
    <linearGradient
       xlink:href="#swatch5"
       id="linearGradient6"
       x1="7.1634693"
       y1="14.290432"
       x2="61.30748"
       y2="14.290432"
       gradientUnits="userSpaceOnUse"
       gradientTransform="matrix(0.99785715,0,0,1.0054167,-16.307264,2.4868121)" />
    <linearGradient
       xlink:href="#swatch5"
       id="linearGradient7"
       x1="172.49046"
       y1="143.69073"
       x2="521.72614"
       y2="143.69073"
       gradientUnits="userSpaceOnUse"
       gradientTransform="matrix(0.10341813,0,0,0.06075436,2.1722431,2.7204419)" />
    <linearGradient
       xlink:href="#swatch5"
       id="linearGradient19"
       x1="52.319527"
       y1="11.689255"
       x2="57.070999"
       y2="11.689255"
       gradientUnits="userSpaceOnUse"
       gradientTransform="matrix(2.3365245,0,0,1.5067588,-110.12351,-0.9411577)" />
  </defs>
  <g
     id="layer1"
     transform="matrix(1.0494061,0,0,1.798982,16.453545,30.007885)">
    <rect
       style="fill:#ffffff;fill-opacity:1;stroke:none;stroke-width:0.192879"
       id="rect4"
       width="66.561455"
       height="67.065704"
       x="-15.678911"
       y="-16.680481"
       rx="4.8408332"
       ry="2.8238192" />
    <path
       style="fill:#000000;fill-opacity:1.0;stroke-width:0.0104671;stroke-linejoin:round"
       id="path11-2"
       d="m -3.5855397,0.92518527 1.4894912,-0.34239218 0.4963521,-0.89361158 0.5825449,0.87545235 1.52038688,0.2917326 -1.48949119,0.34239244 -0.49635209,0.8936116 -0.582545,-0.8754526 z" />
    <path
       style="fill:#000000;fill-opacity:1.0;stroke-width:0.0129798;stroke-linejoin:round"
       id="path11-5"
       d="M 1.4136273,-3.6797756 3.3053832,-4.0943271 3.9357844,-5.1762679 4.6756565,-4.1163134 6.606652,-3.763098 4.7148961,-3.3485461 4.0844949,-2.2666053 3.3446228,-3.3265601 Z" />
    <ellipse
       style="display:inline;fill:none;fill-opacity:0;stroke:url(#linearGradient6);stroke-width:0.364495;stroke-linejoin:round;stroke-dasharray:none"
       id="path6"
       cx="17.854849"
       cy="16.854652"
       rx="23.77195"
       ry="13.972024" />
    <path
       id="path7"
       style="fill:#000000;fill-opacity:1.0;stroke:url(#linearGradient7);stroke-width:0.028845;stroke-linejoin:round;stroke-dasharray:none"
       d="M 17.507901,4.1113609 16.588821,12.106309 11.979657,4.5646678 14.614519,12.426511 6.8396872,5.8428778 12.848115,13.036308 2.4379306,7.8590828 11.411007,13.893838 -0.9258056,10.475847 10.400509,14.940776 -3.0215057,13.514735 9.8859229,16.105514 -3.7071298,16.769016 9.9016501,17.308653 -2.935987,20.016368 10.4472,18.468774 -0.76017455,23.0362 11.485221,19.506182 2.6718783,25.622071 12.944445,20.35043 l -5.8182211,7.247423 7.6003541,-6.653794 -2.426962,7.885231 4.40962,-7.582642 1.129436,7.98542 0.91908,-7.994658 4.609165,7.541352 -2.634862,-7.861843 7.774833,6.583633 -6.008922,-7.193431 10.410676,5.177226 -8.973074,-6.034756 12.336811,3.41799 L 24.946064,18.402653 38.36808,19.828694 25.460651,17.237915 39.053703,16.574413 25.444922,16.034774 38.282561,13.327061 24.899372,14.874655 36.106748,10.307229 23.861353,13.837247 32.674695,7.7213584 22.401636,12.992999 28.220349,5.7455756 20.619996,12.39937 23.046958,4.5141401 18.637339,12.096781 Z m 0.183324,8.3700101 c 2.622149,-0.01573 5.272778,0.776093 6.610499,2.501847 0.676408,0.872613 0.672147,2.539018 -0.0089,3.402112 -1.573043,1.993696 -5.551547,2.968863 -9.103811,2.23131 -2.833625,-0.588345 -4.930437,-2.558556 -4.618012,-4.338754 0.424895,-2.42104 3.74884,-3.776288 7.120171,-3.796515 z" />
    <ellipse
       style="fill:#000000;fill-opacity:1.0;stroke:#000000;stroke-width:0.294531;stroke-linejoin:round;stroke-dasharray:none;stroke-opacity:1.0"
       id="path10"
       cx="17.673286"
       cy="16.671715"
       rx="3.8945208"
       ry="2.2274218" />
    <ellipse
       style="fill:none;fill-opacity:1;stroke:url(#linearGradient19);stroke-width:0.309768;stroke-linejoin:round;stroke-dasharray:none"
       id="path19"
       cx="17.673286"
       cy="16.671715"
       rx="5.5509672"
       ry="3.1978159" />
    <path
       id="path2"
       style="fill:#000000;fill-opacity:1;stroke:none;stroke-width:0.0792655;stroke-linejoin:round"
       d="m 20.589501,-8.8585807 a 6.6576948,3.9112624 0.13264936 0 0 -8.901185,1.7893737 6.6576948,3.9112624 0.13264936 0 0 3.068659,5.233969 6.6576948,3.9112624 0.13264936 0 0 8.901284,-1.7893467 6.6576948,3.9112624 0.13264936 0 0 -3.068758,-5.233996 z m -0.182258,0.2194644 a 6.2415889,3.6668085 0.1326478 0 1 2.49868,1.3013809 5.8254831,3.4223546 0.13264887 0 0 -1.825322,-0.8213594 5.8254831,3.4223546 0.13264887 0 0 -7.788553,1.5656643 5.8254831,3.4223546 0.13264887 0 0 2.685144,4.5797048 5.8254831,3.4223546 0.13264887 0 0 1.948647,0.3217338 6.2415889,3.6668085 0.1326478 0 1 -2.986567,-0.3627678 6.2415889,3.6668085 0.1326478 0 1 -2.876928,-4.9068078 6.2415889,3.6668085 0.1326478 0 1 8.344899,-1.6775488 z" />
    <path
       style="fill:#000000;fill-opacity:1.0;stroke-width:0.0258248;stroke-linejoin:round"
       id="path11"
       d="m -6.6225515,-9.1246439 3.6275062,-0.855796 1.2088159,-2.2335471 1.41872968,2.188159 3.70274942,0.7291741 -3.62750621,0.8557966 -1.20881579,2.2335476 -1.4187298,-2.1881599 z" />
    <path
       style="fill:#000000;fill-opacity:1.0;stroke-width:0.0170395;stroke-linejoin:round"
       id="path11-2-7"
       d="m 30.309641,-0.0766474 2.424753,-0.55738234 0.808015,-1.45471586 0.948329,1.42515434 2.475048,0.47491328 -2.424753,0.55738273 -0.808015,1.45471585 -0.948329,-1.42515472 z" />
    <path
       style="fill:#000000;fill-opacity:1.0;stroke-width:0.00730265;stroke-linejoin:round"
       id="path11-2-6"
       d="m 38.603916,-10.70901 1.03918,-0.238878 0.346292,-0.623449 0.406426,0.61078 1.060735,0.203534 -1.039179,0.238879 -0.346293,0.6234489 -0.406426,-0.6107799 z" />
    <path
       style="fill:#000000;fill-opacity:1.0;stroke-width:0.00998029;stroke-linejoin:round"
       id="path11-2-6-6"
       d="m 30.046149,-8.534257 1.420213,-0.3264667 0.473266,-0.8520475 0.555449,0.8347329 1.449672,0.2781634 -1.420213,0.326467 -0.473266,0.8520475 -0.55545,-0.8347332 z" />
    <path
       style="fill:#000000;fill-opacity:1.0;stroke-width:0.0194737;stroke-linejoin:round"
       id="path11-2-61"
       d="m 37.078774,-3.3975201 2.771146,-0.6370085 0.923446,-1.6625325 1.083805,1.6287479 2.828626,0.5427581 -2.771146,0.6370089 -0.923446,1.6625325 -1.083804,-1.6287483 z" />
    <ellipse
       style="fill:#000000;fill-opacity:1.0;stroke:none;stroke-width:0.131733;stroke-linejoin:round;stroke-dasharray:none"
       id="path12"
       cx="17.733269"
       cy="0.63676661"
       rx="0.95087802"
       ry="0.55888093" />
    <ellipse
       style="fill:#000000;fill-opacity:1.0;stroke:none;stroke-width:0.131733;stroke-linejoin:round;stroke-dasharray:none"
       id="path12-7"
       cx="44.437813"
       cy="16.671715"
       rx="0.95087802"
       ry="0.55888093" />
    <ellipse
       style="fill:#000000;fill-opacity:1.0;stroke:none;stroke-width:0.131734;stroke-linejoin:round;stroke-dasharray:none"
       id="path12-2"
       cx="17.673286"
       cy="-11.502321"
       rx="0.95087802"
       ry="0.55888093" />
    <ellipse
       style="fill:#000000;fill-opacity:1.0;stroke:none;stroke-width:0.131733;stroke-linejoin:round;stroke-dasharray:none"
       id="path12-28"
       cx="-8.7865772"
       cy="16.671715"
       rx="0.95087802"
       ry="0.55888093" />
    <rect
       style="fill:none;stroke:#000000;stroke-width:0.364495;stroke-linecap:round;stroke-linejoin:round;stroke-dasharray:none;stroke-opacity:1.0"
       id="rect1"
       width="58.954433"
       height="62.594662"
       x="-11.622369"
       y="-14.442679"
       rx="3.8035121"
       ry="2.2355237" />
  </g>
</svg>
