<?xml version="1.0" encoding="UTF-8" standalone="no"?>
<!-- Created with Inkscape (http://www.inkscape.org/) -->

<svg
   width="7.4392314mm"
   height="7.0931759mm"
   viewBox="0 0 7.4392313 7.0931766"
   version="1.1"
   id="svg1"
   xmlns="http://www.w3.org/2000/svg"
   xmlns:svg="http://www.w3.org/2000/svg">
  <defs
     id="defs1" />
  <path
     id="path17"
     style="fill:#000000;fill-opacity:1;stroke-width:0.264583"
     d="M 3.7190876,7.0931759 C 3.2817792,7.0930758 2.9007972,5.0605175 2.5470661,4.8033932 2.193335,4.5462688 0.14220996,4.8110853 0.00716946,4.3951493 -0.12787114,3.9792134 1.6878484,2.9889125 1.8230793,2.5730383 1.9583102,2.1571642 1.0723555,0.28803711 1.4262043,0.03107461 1.780053,-0.22588819 3.2833294,1.1952446 3.7206379,1.1953447 c 0.4373084,10e-5 1.9407028,-1.41984389 2.2944338,-1.16271979 0.353731,0.2571244 -0.532949,2.12551099 -0.397909,2.54144699 0.135041,0.4159359 1.950107,1.4067536 1.814877,1.8226277 C 7.2968087,4.8125738 5.2459917,4.5469474 4.8921426,4.8039099 4.5382938,5.0608724 4.156396,7.0932759 3.7190876,7.0931759 Z M 3.7919514,4.2680253 A 1.1,1.1 0 0 0 4.8921426,3.1678341 1.1,1.1 0 0 0 3.7919514,2.0681596 1.1,1.1 0 0 0 2.6917601,3.1678341 1.1,1.1 0 0 0 3.7919514,4.2680253 Z" />
</svg>
