<?xml version="1.0" encoding="UTF-8" standalone="no"?>
<!-- Created with Inkscape (http://www.inkscape.org/) -->

<svg
   width="17.403589mm"
   height="15.090034mm"
   viewBox="0 0 17.403589 15.090035"
   version="1.1"
   id="svg1"
   xmlns="http://www.w3.org/2000/svg"
   xmlns:svg="http://www.w3.org/2000/svg">
  <defs
     id="defs1" />
  <path
     id="path14"
     style="fill:#000000;fill-opacity:1;stroke-width:0.264583"
     d="M 8.7328,15.090035 0,0.036174 17.403589,0 Z M 8.614978,9.5374028 c 0.403649,0 0.818384,-0.03488 1.243852,-0.104387 0.425468,-0.06585 0.865256,-0.166434 1.319816,-0.30179 v -1.733744 c -0.400013,0.201205 -0.792756,0.352837 -1.178223,0.455269 -0.38183,0.102432 -0.743376,0.153996 -1.085205,0.153996 -0.450923,0 -0.785884,-0.06976 -1.004073,-0.208773 -0.214552,-0.139014 -0.321427,-0.354844 -0.321427,-0.647506 0,-0.219496 0.07262,-0.391349 0.218074,-0.515731 0.145459,-0.120723 0.410867,-0.224843 0.796334,-0.312642 l 0.802018,-0.181384 c 0.818208,-0.182914 1.398117,-0.460914 1.739946,-0.834058 0.341829,-0.3731438 0.51263,-0.9033618 0.51263,-1.5911168 0,-0.903594 -0.239838,-1.576864 -0.719853,-2.019515 C 10.462489,1.257028 9.731205,1.037663 8.745719,1.037663 8.28025,1.037663 7.81336,1.086684 7.3442546,1.185458 6.8787854,1.284231 6.4113786,1.430819 5.942273,1.624707 V 3.408061 C 6.4113786,3.130032 6.8639523,2.919764 7.3003296,2.777092 7.736707,2.638077 8.1586,2.568319 8.565885,2.568319 c 0.410922,0 0.725423,0.076829 0.943612,0.230477 0.221825,0.153647 0.332796,0.373529 0.332796,0.658874 0,0.256079 -0.07466,0.453198 -0.223759,0.592212 C 9.469439,4.188897 9.171302,4.313238 8.724015,4.422986 L 7.993311,4.60437 C 7.2623785,4.779967 6.7259354,5.0599938 6.3841065,5.4441118 6.045914,5.8282308 5.8766439,6.3458158 5.8766439,6.9969888 c 0,0.815795 0.2362585,1.443063 0.7090007,1.882056 0.4727421,0.438993 1.1493054,0.658358 2.0293334,0.658358 z" />
</svg>
