<?xml version="1.0" encoding="UTF-8" standalone="no"?>
<svg
   version="1.0"
   width="379.0043pt"
   height="361.93753pt"
   viewBox="0 0 379.0043 361.93753"
   preserveAspectRatio="xMidYMid"
   id="svg1"
   sodipodi:docname="star_marker_4.svg"
   inkscape:version="1.4 (1:1.4+202410161351+e7c3feb100)"
   xmlns:inkscape="http://www.inkscape.org/namespaces/inkscape"
   xmlns:sodipodi="http://sodipodi.sourceforge.net/DTD/sodipodi-0.dtd"
   xmlns="http://www.w3.org/2000/svg"
   xmlns:svg="http://www.w3.org/2000/svg">
  <defs
     id="defs1" />
  <sodipodi:namedview
     id="namedview1"
     pagecolor="#505050"
     bordercolor="#ffffff"
     borderopacity="1"
     inkscape:showpageshadow="0"
     inkscape:pageopacity="0"
     inkscape:pagecheckerboard="1"
     inkscape:deskcolor="#505050"
     inkscape:document-units="pt"
     inkscape:zoom="0.42809439"
     inkscape:cx="157.67551"
     inkscape:cy="435.65159"
     inkscape:window-width="1478"
     inkscape:window-height="891"
     inkscape:window-x="0"
     inkscape:window-y="0"
     inkscape:window-maximized="1"
     inkscape:current-layer="svg1" />
  <g
     transform="matrix(0.1,0,0,-0.1,-278.49571,888)"
     fill="#000000"
     stroke="none"
     id="g1">
    <path
       d="m 4445,8190 -220,-690 h -723 c -445,0 -721,-4 -717,-9 4,-7 579,-431 1163,-857 2,-1 -417,-1312 -436,-1363 -4,-10 -1,-13 12,-8 9,4 271,192 581,418 365,266 569,408 577,403 7,-4 266,-192 576,-417 310,-225 566,-407 568,-404 4,4 -269,865 -406,1279 l -28,87 591,433 592,433 -730,5 -729,5 -220,688 c -121,378 -223,687 -226,687 -3,0 -104,-310 -225,-690 z"
       id="path1" />
  </g>
</svg>
