<?xml version="1.0" standalone="no"?>
<!DOCTYPE svg PUBLIC "-//W3C//DTD SVG 20010904//EN"
 "http://www.w3.org/TR/2001/REC-SVG-20010904/DTD/svg10.dtd">
<svg version="1.0" xmlns="http://www.w3.org/2000/svg"
 width="312.000000pt" height="378.000000pt" viewBox="0 0 312.000000 378.000000"
 preserveAspectRatio="xMidYMid meet">

<g transform="translate(0.000000,378.000000) scale(0.100000,-0.100000)"
fill="#000000" stroke="none">
<path d="M1537 3738 c-82 -236 -388 -1093 -391 -1096 -3 -2 -260 41 -573 95
-312 55 -569 96 -571 92 -2 -4 156 -211 351 -461 195 -249 360 -463 367 -474
12 -19 -12 -52 -301 -410 -172 -214 -337 -420 -367 -457 -30 -37 -52 -70 -49
-74 4 -3 261 38 573 92 434 75 568 95 574 86 4 -7 96 -264 205 -572 109 -307
201 -559 204 -559 4 0 96 253 205 563 109 309 203 566 207 571 5 6 232 -29
574 -88 311 -54 568 -96 571 -93 4 3 -644 818 -722 907 -11 13 41 84 358 490
295 378 367 476 351 478 -10 2 -268 -40 -572 -93 -305 -53 -557 -93 -561 -88
-4 4 -96 261 -206 571 -109 309 -202 562 -206 562 -3 0 -13 -19 -21 -42z"/>
</g>
</svg>
