<?xml version="1.0" encoding="UTF-8" standalone="no"?>
<!-- Created with Inkscape (http://www.inkscape.org/) -->

<svg
   width="7.8067584mm"
   height="7.8067589mm"
   viewBox="0 0 7.8067583 7.8067596"
   version="1.1"
   id="svg1"
   xmlns="http://www.w3.org/2000/svg"
   xmlns:svg="http://www.w3.org/2000/svg">
  <defs
     id="defs1" />
  <path
     id="path17"
     style="fill:#000000;fill-opacity:1;stroke-width:0.264583"
     d="M 3.9026042,0 C 3.5433879,8.2202785e-5 3.4267427,1.8153103 3.0949015,1.9528524 2.7630604,2.0903945 1.3965121,0.8900538 1.1425659,1.1441162 0.8886197,1.3981786 2.0897258,2.764031 1.9523356,3.0959351 1.8149454,3.4278391 -8.2197208e-5,3.5449382 0,3.9041545 8.2202792e-5,4.2633708 1.8153103,4.380016 1.9528524,4.7118571 2.0903945,5.0436983 0.8900538,6.4102465 1.1441162,6.6641927 1.3981786,6.9181389 2.764031,5.7170328 3.0959351,5.854423 3.4278391,5.9918133 3.5449382,7.8068411 3.9041545,7.8067591 4.2633708,7.8066761 4.380016,5.9919651 4.7118571,5.854423 5.0436983,5.716881 6.4102463,6.9167048 6.6641923,6.6626424 6.9181393,6.40858 5.7170333,5.0432444 5.8544233,4.7113404 5.9918133,4.3794363 7.8068413,4.2618205 7.8067583,3.9026042 7.8066763,3.5433879 5.9919653,3.4267427 5.8544233,3.0949016 5.7168813,2.7630604 6.9172213,1.3965121 6.6631593,1.1425659 6.4090973,0.8886198 5.0432444,2.0897258 4.7113404,1.9523356 4.3794363,1.8149454 4.2618205,-8.2097215e-5 3.9026042,0 Z m -0.026872,2.9254029 a 1,1 0 0 1 0.999939,0.9999389 1,1 0 0 1 -0.999939,0.999939 1,1 0 0 1 -1.0004557,-0.999939 1,1 0 0 1 1.0004557,-0.9999389 z" />
</svg>
