<?xml version="1.0" encoding="UTF-8" standalone="no"?>
<!-- Created with Inkscape (http://www.inkscape.org/) -->

<svg
   width="17.310572mm"
   height="14.962656mm"
   viewBox="0 0 17.310571 14.962657"
   version="1.1"
   id="svg1"
   xmlns="http://www.w3.org/2000/svg"
   xmlns:svg="http://www.w3.org/2000/svg">
  <defs
     id="defs1" />
  <path
     id="path8"
     style="fill:#000000;stroke-width:0.0304234"
     d="M 8.6635539,14.961386 C 8.5917299,14.969886 8.5667898,14.941826 8.417574,14.687501 6.5689,11.536549 0,0.16040882 0,0.10957882 v -0.07028 l 4.9516358,-0.020153 C 8.2399215,0.00572582 11.329862,-4.4417811e-4 13.59762,2.4821892e-5 15.865378,4.8481712e-4 17.310854,0.00760882 17.310572,0.02172882 17.31032,0.03427782 15.382894,3.3987278 13.027112,7.4982754 9.1645186,14.219988 8.7356879,14.952884 8.6635539,14.961386 Z M 4.3775105,7.1685798 h 1.456242 l 1.0175089,-4.758883 1.0133748,4.758883 h 1.4650269 l 1.0087239,-4.758883 1.017509,4.758883 h 1.447457 L 11.413257,0.62014182 H 9.6583253 L 8.5881063,5.5986497 7.5313233,0.62014182 h -1.754415 z" />
</svg>
